<?xml version="1.0" encoding="UTF-8" standalone="no" ?>
<!DOCTYPE svg PUBLIC "-//W3C//DTD SVG 1.1//EN" "http://www.w3.org/Graphics/SVG/1.1/DTD/svg11.dtd">
<svg xmlns="http://www.w3.org/2000/svg" xmlns:xlink="http://www.w3.org/1999/xlink" version="1.1" width="30" height="30" viewBox="0 0 640 640" xml:space="preserve">
<desc>Created with Fabric.js 4.6.0</desc>
<defs>
</defs>
<g transform="matrix(0.96 0 0 0.96 320 320)" id="5NHf30AioVHQh3dt0ch8a"  >
<g style="" vector-effect="non-scaling-stroke"   >
		<g transform="matrix(1 0 0 1 177.36 165.92)" id="-nFKMNHOVXOoVdSdmMy33"  >
<path style="stroke: none; stroke-width: 1; stroke-dasharray: none; stroke-linecap: butt; stroke-dashoffset: 0; stroke-linejoin: miter; stroke-miterlimit: 4; fill: rgb(61,121,193); fill-rule: nonzero; opacity: 1;" vector-effect="non-scaling-stroke"  transform=" translate(-477.36, -465.92)" d="M 505.97 430.286 L 505.97 458.731 C 505.97 478.764 484.074 496.323 453.728 500.52 C 452.111 500.87899999999996 450.443 501.222 448.744 501.548 L 448.744 430.28499999999997 L 505.97 430.28499999999997 z" stroke-linecap="round" />
</g>
		<g transform="matrix(1 0 0 1 111.56 168.62)" id="NMNU2by0tg040dG7rbIQl"  >
<path style="stroke: none; stroke-width: 1; stroke-dasharray: none; stroke-linecap: butt; stroke-dashoffset: 0; stroke-linejoin: miter; stroke-miterlimit: 4; fill: rgb(242,51,102); fill-rule: nonzero; opacity: 1;" vector-effect="non-scaling-stroke"  transform=" translate(-411.56, -468.62)" d="M 448.743 430.286 L 448.743 501.549 C 448.603 501.575 448.468 501.60499999999996 448.327 501.631 C 431.114 504.892 408.306 506.53099999999995 374.372 506.94699999999995 L 374.372 430.28599999999994 L 448.743 430.28599999999994 z" stroke-linecap="round" />
</g>
		<g transform="matrix(1 0 0 1 -37.19 168.67)" id="wWz8DVoZ3l7Si81iOEu82"  >
<path style="stroke: none; stroke-width: 1; stroke-dasharray: none; stroke-linecap: butt; stroke-dashoffset: 0; stroke-linejoin: miter; stroke-miterlimit: 4; fill: rgb(179,221,220); fill-rule: nonzero; opacity: 1;" vector-effect="non-scaling-stroke"  transform=" translate(-262.81, -468.67)" d="M 300.002 430.286 L 300.002 507 C 299.962 507 299.923 507 299.884 507 C 292.469 507 285.18100000000004 507.013 278.031 507.03 L 257.815 507.056 C 246.662 507.056 235.91899999999998 507.017 225.653 506.87199999999996 C 225.643 506.87199999999996 225.63299999999998 506.87199999999996 225.623 506.87199999999996 L 225.623 430.28499999999997 L 300.002 430.28499999999997 z" stroke-linecap="round" />
</g>
		<g transform="matrix(1 0 0 1 -111.56 168.58)" id="OcYA8a--Ia6BJO9TJLWrL"  >
<path style="stroke: none; stroke-width: 1; stroke-dasharray: none; stroke-linecap: butt; stroke-dashoffset: 0; stroke-linejoin: miter; stroke-miterlimit: 4; fill: rgb(197,253,255); fill-rule: nonzero; opacity: 1;" vector-effect="non-scaling-stroke"  transform=" translate(-188.44, -468.58)" d="M 225.623 430.286 L 225.623 506.873 C 191.843 506.399 169.029 504.791 151.646 501.64799999999997 C 151.51299999999998 501.62499999999994 151.384 501.597 151.25099999999998 501.57399999999996 L 151.25099999999998 430.28599999999994 L 225.623 430.28599999999994 z" stroke-linecap="round" />
</g>
		<g transform="matrix(1 0 0 1 -177.36 165.93)" id="TTgDyDr4no7KVEEoMD-aK"  >
<path style="stroke: none; stroke-width: 1; stroke-dasharray: none; stroke-linecap: butt; stroke-dashoffset: 0; stroke-linejoin: miter; stroke-miterlimit: 4; fill: rgb(255,220,146); fill-rule: nonzero; opacity: 1;" vector-effect="non-scaling-stroke"  transform=" translate(-122.64, -465.93)" d="M 151.252 430.286 L 151.252 501.574 C 149.145 501.19100000000003 147.09300000000002 500.784 144.97 500.319 C 115.453 495.88100000000003 94.031 478.392 94.031 458.731 L 94.031 430.286 L 151.252 430.286 z" stroke-linecap="round" />
</g>
		<g transform="matrix(1 0 0 1 0.32 -6.05)" id="cFFh7o9l9oWAo7CBm8Mpw"  >
<path style="stroke: none; stroke-width: 1; stroke-dasharray: none; stroke-linecap: butt; stroke-dashoffset: 0; stroke-linejoin: miter; stroke-miterlimit: 4; fill: rgb(249,249,249); fill-rule: nonzero; opacity: 1;" vector-effect="non-scaling-stroke"  transform=" translate(-300.32, -293.95)" d="M 251.917 103.906 C 249.203 107.21000000000001 246.874 110.81500000000001 244.989 114.668 L 169.995 48.57400000000001 C 170.401 48.137000000000015 170.792 47.683000000000014 171.162 47.20300000000001 L 251.917 103.906 z M 348.978 104.226 L 430.64 32.245000000000005 C 430.235 31.808000000000003 429.844 31.355000000000004 429.476 30.875000000000004 L 338.878 94.48 C 342.646 97.333 346.043 100.599 348.978 104.226 z M 271.146 547.298 C 271.146 552.667 266.778 557.035 261.40500000000003 557.035 C 256.019 557.035 251.63800000000003 552.6669999999999 251.63800000000003 547.298 C 251.63800000000003 541.916 256.019 537.54 261.40500000000003 537.54 C 266.777 537.54 271.146 541.916 271.146 547.298 z M 269.559 547.276 C 269.559 542.781 265.90900000000005 539.1179999999999 261.40500000000003 539.1179999999999 C 256.889 539.1179999999999 253.23300000000003 542.781 253.23300000000003 547.276 C 253.23300000000003 551.7969999999999 256.889 555.457 261.40500000000003 555.457 C 265.908 555.457 269.559 551.798 269.559 547.276 z M 311.207 547.298 C 311.207 552.667 306.831 557.035 301.453 557.035 C 296.07599999999996 557.035 291.69899999999996 552.6669999999999 291.69899999999996 547.298 C 291.69899999999996 541.916 296.07599999999996 537.54 301.453 537.54 C 306.831 537.54 311.207 541.916 311.207 547.298 z M 309.616 547.276 C 309.616 542.781 305.966 539.1179999999999 301.453 539.1179999999999 C 296.941 539.1179999999999 293.286 542.781 293.286 547.276 C 293.286 551.7969999999999 296.941 555.457 301.453 555.457 C 305.966 555.457 309.616 551.798 309.616 547.276 z M 351.265 547.298 C 351.265 552.667 346.889 557.035 341.51099999999997 557.035 C 336.13399999999996 557.035 331.75699999999995 552.6669999999999 331.75699999999995 547.298 C 331.75699999999995 541.916 336.13399999999996 537.54 341.51099999999997 537.54 C 346.889 537.54 351.265 541.916 351.265 547.298 z M 349.683 547.276 C 349.683 542.781 346.024 539.1179999999999 341.51099999999997 539.1179999999999 C 336.99899999999997 539.1179999999999 333.344 542.781 333.344 547.276 C 333.344 551.7969999999999 336.99899999999997 555.457 341.51099999999997 555.457 C 346.023 555.457 349.683 551.798 349.683 547.276 z" stroke-linecap="round" />
</g>
		<g transform="matrix(1 0 0 1 0.32 -44.21)" id="tgKOk4pct4wMiEjx3Mo3O"  >
<path style="stroke: none; stroke-width: 1; stroke-dasharray: none; stroke-linecap: butt; stroke-dashoffset: 0; stroke-linejoin: miter; stroke-miterlimit: 4; fill: rgb(255,100,119); fill-rule: nonzero; opacity: 1;" vector-effect="non-scaling-stroke"  transform=" translate(-300.32, -255.79)" d="M 300.002 430.286 L 374.372 430.286 L 374.372 506.947 C 374.362 506.947 374.351 506.947 374.34200000000004 506.947 C 358.725 507.153 341.92600000000004 507.109 324.12700000000007 507.048 C 316.30800000000005 507.026 308.30100000000004 507.004 300.00200000000007 507 L 300.00200000000007 430.286 z M 455.227 10.017 C 452.52099999999996 6.497 448.472 4.476999999999999 444.113 4.476999999999999 C 440.922 4.476999999999999 437.905 5.552 435.386 7.593999999999999 C 430.355 11.663 428.723 18.543 430.92900000000003 24.380000000000003 C 431.19500000000005 25.083000000000002 431.53000000000003 25.765000000000004 431.90700000000004 26.431000000000004 C 432.23900000000003 27.015000000000004 432.59700000000004 27.589000000000006 433.016 28.135000000000005 C 433.059 28.191000000000006 433.10900000000004 28.239000000000004 433.15200000000004 28.293000000000006 C 433.42300000000006 28.637000000000008 433.706 28.968000000000007 434.00200000000007 29.281000000000006 C 434.52400000000006 29.834000000000007 435.0900000000001 30.328000000000007 435.68100000000004 30.783000000000005 C 436.29900000000004 31.260000000000005 436.949 31.682000000000006 437.63000000000005 32.04600000000001 C 439.6120000000001 33.105000000000004 441.82900000000006 33.687000000000005 444.14000000000004 33.687000000000005 C 447.331 33.687000000000005 450.35300000000007 32.607000000000006 452.87000000000006 30.574000000000005 C 459.035 25.585 460.093 16.36 455.227 10.017 z M 165.248 23.92 C 162.72899999999998 21.878 159.709 20.802000000000003 156.517 20.802000000000003 C 152.159 20.802000000000003 148.105 22.823000000000004 145.399 26.342000000000002 C 140.542 32.686 141.604 41.907000000000004 147.773 46.891000000000005 C 152.107 50.40800000000001 158.15 50.74000000000001 162.93099999999998 48.318000000000005 C 163.62499999999997 47.96600000000001 164.291 47.556000000000004 164.92299999999997 47.089000000000006 C 165.52499999999998 46.64300000000001 166.09999999999997 46.15500000000001 166.62999999999997 45.607000000000006 C 166.92999999999998 45.29600000000001 167.21299999999997 44.964000000000006 167.48499999999996 44.62100000000001 C 167.52899999999997 44.56500000000001 167.57899999999995 44.51700000000001 167.62299999999996 44.46000000000001 C 168.04099999999997 43.91600000000001 168.39899999999997 43.34300000000001 168.72899999999996 42.76100000000001 C 169.10699999999994 42.09600000000001 169.43999999999997 41.41400000000001 169.70599999999996 40.71200000000001 C 171.915 34.875 170.282 27.99 165.248 23.92 z" stroke-linecap="round" />
</g>
		<g transform="matrix(1 0 0 1 0.32 40.9)" id="h89uQ3BlAX8AwJ4mZy06n"  >
<path style="stroke: none; stroke-width: 1; stroke-dasharray: none; stroke-linecap: butt; stroke-dashoffset: 0; stroke-linejoin: miter; stroke-miterlimit: 4; fill: rgb(127,127,127); fill-rule: nonzero; opacity: 1;" vector-effect="non-scaling-stroke"  transform=" translate(-300.32, -340.9)" d="M 99.199 560.434 C 111.795 568.476 125.824 574.526 140.88 578.083 L 139.238 581.8729999999999 C 135.653 590.1669999999999 127.499 595.5229999999999 118.461 595.5229999999999 C 115.366 595.5229999999999 112.345 594.8929999999999 109.482 593.656 C 98.035 588.689 92.75 575.332 97.703 563.89 L 99.199 560.434 z M 502.931 563.887 L 501.29699999999997 560.107 C 488.734 568.202 474.734 574.318 459.693 577.943 L 461.395 581.874 C 464.97999999999996 590.168 473.139 595.524 482.18 595.524 C 485.276 595.524 488.297 594.894 491.165 593.657 C 502.599 588.689 507.881 575.332 502.931 563.887 z M 346.984 108.968 C 346.542 108.364 346.08599999999996 107.771 345.61699999999996 107.187 C 342.82599999999996 103.71 339.57599999999996 100.583 335.953 97.87 C 335.01 97.16300000000001 334.036 96.491 333.044 95.842 C 332.36699999999996 95.4 331.679 94.971 330.981 94.556 C 322.133 89.301 311.594 86.285 300.318 86.285 C 283.865 86.285 268.96999999999997 92.698 258.632 103.152 C 258.101 103.68900000000001 257.582 104.236 257.076 104.794 C 256.572 105.35 256.079 105.916 255.60000000000002 106.49199999999999 C 252.75000000000003 109.916 250.353 113.69099999999999 248.48900000000003 117.75399999999999 C 248.16200000000003 118.46699999999998 247.85100000000003 119.18799999999999 247.55700000000004 119.919 C 247.25900000000004 120.65899999999999 246.97800000000004 121.40599999999999 246.71600000000004 122.163 C 246.16800000000003 123.74499999999999 245.69000000000003 125.35799999999999 245.30300000000003 127.008 C 247.47700000000003 126.89699999999999 249.66300000000004 126.79299999999999 251.85900000000004 126.695 C 252.93300000000005 126.648 254.01700000000002 126.607 255.09600000000003 126.562 C 256.02200000000005 126.524 256.94500000000005 126.484 257.874 126.448 C 258.84900000000005 126.41 259.829 126.377 260.80800000000005 126.342 C 265.81100000000004 126.164 270.86100000000005 126.021 275.94900000000007 125.91199999999999 C 276.3760000000001 125.90299999999999 276.80300000000005 125.89299999999999 277.2300000000001 125.88499999999999 C 278.62500000000006 125.85699999999999 280.0230000000001 125.83099999999999 281.4240000000001 125.80799999999999 C 282.2440000000001 125.794 283.0660000000001 125.782 283.8880000000001 125.77 C 285.05500000000006 125.753 286.2220000000001 125.737 287.3920000000001 125.72399999999999 C 288.58100000000013 125.71099999999998 289.7740000000001 125.701 290.9660000000001 125.69099999999999 C 291.84500000000014 125.68399999999998 292.7220000000001 125.67499999999998 293.60200000000015 125.66999999999999 C 295.73100000000017 125.65799999999999 297.86400000000015 125.64999999999999 300.0020000000001 125.64999999999999 C 302.15800000000013 125.64999999999999 304.30900000000014 125.65799999999999 306.45600000000013 125.66999999999999 C 307.26300000000015 125.67399999999999 308.06800000000015 125.68299999999999 308.8750000000001 125.689 C 310.1740000000001 125.699 311.4720000000001 125.71 312.76600000000013 125.725 C 313.8240000000001 125.737 314.87900000000013 125.752 315.9350000000001 125.767 C 316.91500000000013 125.78099999999999 317.8950000000001 125.79599999999999 318.8730000000001 125.812 C 320.1310000000001 125.833 321.3870000000001 125.855 322.6420000000001 125.881 C 323.2460000000001 125.893 323.8460000000001 125.907 324.4480000000001 125.92 C 334.88900000000007 126.148 345.2170000000001 126.515 355.3380000000001 127.032 C 353.9650000000001 121.158 351.5450000000001 115.702 348.27900000000005 110.81299999999999 C 347.859 110.189 347.429 109.574 346.984 108.968 z M 261.404 539.118 C 256.888 539.118 253.232 542.7810000000001 253.232 547.2760000000001 C 253.232 551.797 256.888 555.4570000000001 261.404 555.4570000000001 C 265.908 555.4570000000001 269.558 551.7980000000001 269.558 547.2760000000001 C 269.559 542.781 265.908 539.118 261.404 539.118 z M 301.453 539.118 C 296.941 539.118 293.286 542.7810000000001 293.286 547.2760000000001 C 293.286 551.797 296.941 555.4570000000001 301.453 555.4570000000001 C 305.96599999999995 555.4570000000001 309.616 551.7980000000001 309.616 547.2760000000001 C 309.616 542.781 305.966 539.118 301.453 539.118 z M 341.511 539.118 C 336.999 539.118 333.34400000000005 542.7810000000001 333.34400000000005 547.2760000000001 C 333.34400000000005 551.797 336.999 555.4570000000001 341.511 555.4570000000001 C 346.024 555.4570000000001 349.68300000000005 551.7980000000001 349.68300000000005 547.2760000000001 C 349.683 542.781 346.023 539.118 341.511 539.118 z" stroke-linecap="round" />
</g>
		<g transform="matrix(1 0 0 1 0 55.56)" id="jQ4R4U2ZhinZWbSiyXHpu"  >
<path style="stroke: none; stroke-width: 1; stroke-dasharray: none; stroke-linecap: butt; stroke-dashoffset: 0; stroke-linejoin: miter; stroke-miterlimit: 4; fill: rgb(189,213,247); fill-rule: nonzero; opacity: 1;" vector-effect="non-scaling-stroke"  transform=" translate(-300, -355.56)" d="M 455.947 143.944 C 429.32 137.458 389.926 132.935 345.70799999999997 131.075 C 345.64899999999994 131.07299999999998 345.59099999999995 131.07 345.532 131.06799999999998 C 344.22999999999996 131.01299999999998 342.91999999999996 130.96399999999997 341.609 130.914 C 340.37899999999996 130.868 339.147 130.82199999999997 337.912 130.78 C 337.245 130.757 336.578 130.734 335.90999999999997 130.712 C 316.921 130.10199999999998 297.45 129.97699999999998 278.373 130.34099999999998 C 278.3 130.34199999999998 278.227 130.343 278.15299999999996 130.34499999999997 C 275.801 130.38999999999996 273.455 130.44299999999998 271.116 130.50299999999996 C 270.655 130.51499999999996 270.197 130.52999999999994 269.73699999999997 130.54299999999995 C 268.16499999999996 130.58499999999995 266.59599999999995 130.63099999999994 265.03099999999995 130.68099999999995 C 263.72799999999995 130.72299999999996 262.42999999999995 130.76699999999997 261.13399999999996 130.81299999999996 C 260.477 130.83599999999996 259.82199999999995 130.85899999999995 259.167 130.88399999999996 C 258.498 130.90899999999996 257.83399999999995 130.93599999999995 257.167 130.96299999999997 C 257.01899999999995 130.96899999999997 256.86999999999995 130.97399999999996 256.72099999999995 130.98099999999997 C 256.0199999999999 131.00799999999995 255.31499999999994 131.03399999999996 254.61699999999993 131.06399999999996 C 254.36699999999993 131.07399999999996 254.11699999999993 131.08499999999995 253.86699999999993 131.09599999999998 C 209.80099999999993 132.968 170.5709999999999 137.48199999999997 144.07499999999993 143.94199999999998 C 83.738 157.162 39.985 211.464 39.985 273.072 L 39.985 445.10900000000004 C 39.985 489.165 62.394 529.5070000000001 97.223 553.7370000000001 C 99.221 555.1270000000001 101.261 556.4610000000001 103.338 557.7420000000001 C 113.923 564.2700000000001 125.517 569.364 137.877 572.7090000000001 C 139.85600000000002 573.244 141.85500000000002 573.739 143.872 574.1840000000001 C 144.93200000000002 574.4430000000001 146.02 574.69 147.122 574.9300000000001 C 170.137 579.9530000000001 202.448 580.9910000000001 246.52 580.9910000000001 C 254.81 580.9910000000001 263.332 580.9570000000001 272.04900000000004 580.9220000000001 C 281.16900000000004 580.8870000000002 290.504 580.8530000000002 300.00000000000006 580.8530000000002 C 309.4920000000001 580.8530000000002 318.8260000000001 580.8870000000002 327.94700000000006 580.9220000000001 C 336.65600000000006 580.9570000000001 345.17600000000004 580.9870000000002 353.4630000000001 580.9910000000001 C 397.9410000000001 580.9910000000001 430.4390000000001 579.9350000000001 453.4510000000001 574.7980000000001 C 454.32400000000007 574.6040000000002 455.18700000000007 574.4040000000001 456.0330000000001 574.1970000000001 C 458.70900000000006 573.6080000000001 461.3500000000001 572.9350000000002 463.95900000000006 572.1880000000001 C 475.00500000000005 569.0230000000001 485.42300000000006 564.4610000000001 495.03200000000004 558.7260000000001 C 497.848 557.0440000000001 500.59400000000005 555.2590000000001 503.26700000000005 553.3810000000001 C 537.822 529.1150000000001 560.0120000000001 488.9580000000001 560.0120000000001 445.11000000000007 L 560.0120000000001 273.072 C 560.015 211.446 516.249 157.14 455.947 143.944 z M 261.404 561.512 C 253.552 561.512 247.16 555.137 247.16 547.2979999999999 C 247.16 539.4499999999999 253.553 533.0629999999999 261.404 533.0629999999999 C 269.243 533.0629999999999 275.622 539.4509999999999 275.622 547.2979999999999 C 275.622 555.137 269.243 561.512 261.404 561.512 z M 301.453 561.512 C 293.60499999999996 561.512 287.22299999999996 555.137 287.22299999999996 547.2979999999999 C 287.22299999999996 539.4499999999999 293.60599999999994 533.0629999999999 301.453 533.0629999999999 C 309.3 533.0629999999999 315.68399999999997 539.4509999999999 315.68399999999997 547.2979999999999 C 315.685 555.137 309.301 561.512 301.453 561.512 z M 341.511 561.512 C 333.663 561.512 327.281 555.137 327.281 547.2979999999999 C 327.281 539.4499999999999 333.664 533.0629999999999 341.511 533.0629999999999 C 349.35800000000006 533.0629999999999 355.742 539.4509999999999 355.742 547.2979999999999 C 355.742 555.137 349.358 561.512 341.511 561.512 z M 510.446 458.731 C 510.446 481.025 486.925 500.45 454.51800000000003 504.923 C 452.90500000000003 505.289 451.055 505.67 449.158 506.028 C 431.67400000000004 509.34200000000004 408.619 511.004 374.398 511.42400000000004 C 365.728 511.53700000000003 356.69100000000003 511.57200000000006 347.322 511.57200000000006 C 339.793 511.57200000000006 332.053 511.55000000000007 324.11400000000003 511.52400000000006 C 316.261 511.50200000000007 308.21700000000004 511.4800000000001 300.002 511.47600000000006 L 257.815 511.5330000000001 C 246.639 511.5330000000001 235.876 511.49300000000005 225.591 511.34900000000005 C 191.537 510.87200000000007 168.48700000000002 509.242 150.854 506.05400000000003 C 148.55 505.64300000000003 146.316 505.19300000000004 144.15200000000002 504.716 C 112.58000000000001 499.976 89.55200000000002 480.62600000000003 89.55200000000002 458.73 L 89.55200000000002 253.686 C 89.55200000000002 221.31900000000002 112.51000000000002 192.62900000000002 144.14200000000002 185.467 C 177.485 174.239 229.959 168.51600000000002 299.88300000000004 168.51600000000002 C 370.18300000000005 168.51600000000002 422.35200000000003 174.14700000000002 454.93300000000005 185.257 C 486.99000000000007 191.903 510.446 220.711 510.446 253.686 L 510.446 458.731 z" stroke-linecap="round" />
</g>
		<g transform="matrix(1 0 0 1 0 0)" id="k70K14ol088w5_5fVZOAd"  >
<path style="stroke: none; stroke-width: 1; stroke-dasharray: none; stroke-linecap: butt; stroke-dashoffset: 0; stroke-linejoin: miter; stroke-miterlimit: 4; fill: rgb(85,124,179); fill-rule: nonzero; opacity: 1;" vector-effect="non-scaling-stroke"  transform=" translate(-300, -300)" d="M 456.953 139.585 C 432.97299999999996 133.741 398.729 129.478 359.966 127.298 C 358.488 120.199 355.632 113.63300000000001 351.663 107.82900000000001 L 434.087 35.168000000000006 C 437.044 37.107000000000006 440.509 38.16400000000001 444.139 38.16400000000001 C 448.368 38.16400000000001 452.35900000000004 36.74300000000001 455.68600000000004 34.05400000000001 C 463.72200000000004 27.553000000000008 465.10800000000006 15.542000000000009 458.77700000000004 7.28700000000001 C 455.218 2.658 449.875 0 444.112 0 C 439.88 0 435.88800000000003 1.42 432.569 4.114 C 425.711 9.658999999999999 423.712 19.197 427.192 27.004 L 334.968 91.756 C 325.108 85.452 313.153 81.807 300.317 81.807 C 282.349 81.807 266.093 88.94200000000001 254.918 100.543 L 173.443 43.336000000000006 C 176.92600000000002 35.528000000000006 174.924 25.986000000000004 168.06400000000002 20.439000000000007 C 164.74200000000002 17.746000000000006 160.75000000000003 16.325000000000006 156.51700000000002 16.325000000000006 C 150.75900000000001 16.325000000000006 145.41200000000003 18.979000000000006 141.84400000000002 23.618000000000006 C 135.526 31.873000000000005 136.92000000000002 43.87400000000001 144.95700000000002 50.37100000000001 C 148.27900000000002 53.06400000000001 152.27100000000002 54.48500000000001 156.50300000000001 54.48500000000001 C 160.12800000000001 54.48500000000001 163.58700000000002 53.43300000000001 166.54100000000003 51.50000000000001 L 243.10700000000003 118.981 C 242.08200000000002 121.64399999999999 241.27200000000002 124.41199999999999 240.67600000000002 127.262 C 201.63000000000002 129.432 167.14000000000001 133.71 143.06400000000002 139.581 C 80.742 153.235 35.509 209.374 35.509 273.072 L 35.509 445.10900000000004 C 35.509 490.97200000000004 58.995000000000005 532.941 95.40700000000001 557.926 L 93.59300000000002 562.1120000000001 C 87.66400000000002 575.8180000000001 93.99000000000002 591.816 107.70100000000002 597.7660000000001 C 111.12900000000002 599.248 114.74900000000002 600.0000000000001 118.45700000000002 600.0000000000001 C 118.46100000000003 600.0000000000001 118.46100000000003 600.0000000000001 118.46100000000003 600.0000000000001 C 129.28700000000003 600.0000000000001 139.05400000000003 593.5810000000001 143.348 583.6480000000001 L 145.311 579.1150000000001 C 168.74800000000002 584.3850000000001 201.591 585.4670000000001 246.522 585.4670000000001 C 254.81699999999998 585.4670000000001 345.176 585.4630000000001 353.465 585.4670000000001 L 353.469 585.4670000000001 C 398.801 585.4670000000001 431.83299999999997 584.363 455.263 578.9760000000001 L 457.28499999999997 583.6490000000001 C 461.57899999999995 593.5820000000001 471.35099999999994 600.0010000000001 482.181 600.0010000000001 C 485.888 600.0010000000001 489.50899999999996 599.2490000000001 492.94599999999997 597.767 C 506.643 591.817 512.967 575.8190000000001 507.042 562.113 L 505.085 557.5840000000001 C 541.227 532.5600000000001 564.492 490.76900000000006 564.492 445.11000000000007 L 564.492 273.072 C 564.491 209.356 519.244 153.209 456.953 139.585 z M 560.015 445.108 C 560.015 488.957 537.8249999999999 529.114 503.27 553.379 C 500.596 555.2570000000001 497.851 557.042 495.03499999999997 558.724 C 485.426 564.4590000000001 475.008 569.0210000000001 463.962 572.186 C 461.354 572.933 458.712 573.606 456.036 574.195 C 455.19 574.402 454.327 574.601 453.454 574.796 C 430.44100000000003 579.9340000000001 397.943 580.989 353.466 580.989 C 345.18 580.985 336.659 580.955 327.95 580.9200000000001 C 318.829 580.8850000000001 309.495 580.8510000000001 300.003 580.8510000000001 C 290.507 580.8510000000001 281.17199999999997 580.8850000000001 272.05199999999996 580.9200000000001 C 263.33399999999995 580.955 254.81299999999996 580.989 246.52299999999997 580.989 C 202.45099999999996 580.989 170.14 579.952 147.12499999999997 574.928 C 146.02299999999997 574.688 144.93499999999997 574.441 143.87499999999997 574.182 C 141.85699999999997 573.738 139.85899999999998 573.243 137.87999999999997 572.707 C 125.51999999999997 569.362 113.92599999999996 564.269 103.34099999999997 557.74 C 101.26299999999996 556.4590000000001 99.22299999999997 555.125 97.22599999999997 553.735 C 62.39699999999997 529.506 39.98799999999997 489.163 39.98799999999997 445.107 L 39.98799999999997 273.072 C 39.98799999999997 211.464 83.74099999999997 157.162 144.07599999999996 143.94 C 169.69999999999996 137.69299999999998 207.23099999999997 133.266 249.52899999999997 131.288 C 250.97199999999998 131.222 252.41699999999997 131.156 253.86899999999997 131.09400000000002 C 254.11899999999997 131.08300000000003 254.36899999999997 131.07200000000003 254.61899999999997 131.062 C 255.31799999999998 131.03300000000002 256.022 131.007 256.72299999999996 130.979 C 256.871 130.973 257.02 130.967 257.169 130.961 C 257.83599999999996 130.935 258.501 130.907 259.169 130.882 C 259.82399999999996 130.858 260.479 130.834 261.13599999999997 130.811 C 262.43199999999996 130.76500000000001 263.72999999999996 130.72 265.03299999999996 130.679 C 266.59799999999996 130.63 268.167 130.584 269.739 130.541 C 270.19899999999996 130.528 270.657 130.514 271.118 130.501 C 273.457 130.441 275.803 130.388 278.155 130.34300000000002 C 278.22799999999995 130.342 278.301 130.34000000000003 278.375 130.33900000000003 C 282.913 130.25200000000004 287.475 130.19700000000003 292.045 130.16600000000003 C 292.625 130.16200000000003 293.208 130.16100000000003 293.79 130.15700000000004 C 302.954 130.10900000000004 312.153 130.16600000000003 321.29400000000004 130.33900000000003 C 321.54100000000005 130.34400000000002 321.78700000000003 130.34900000000002 322.035 130.354 C 326.68 130.44500000000002 331.31100000000004 130.562 335.91200000000003 130.709 C 336.58000000000004 130.731 337.247 130.754 337.91400000000004 130.77700000000002 C 339.14900000000006 130.81900000000002 340.38100000000003 130.865 341.61100000000005 130.911 C 342.922 130.961 344.232 131.01 345.53400000000005 131.065 C 345.5930000000001 131.067 345.65100000000007 131.07 345.71000000000004 131.072 C 347.10600000000005 131.13 348.494 131.19400000000002 349.88500000000005 131.256 C 392.40400000000005 133.22 430.16300000000007 137.66 455.94900000000007 143.941 C 516.2510000000001 157.136 560.0160000000001 211.44299999999998 560.0160000000001 273.068 L 560.0160000000001 445.108 z M 502.931 563.887 C 507.881 575.332 502.599 588.6899999999999 491.166 593.6569999999999 C 488.298 594.8939999999999 485.276 595.5239999999999 482.181 595.5239999999999 C 473.14 595.5239999999999 464.981 590.1679999999999 461.39599999999996 581.8739999999999 L 459.69399999999996 577.9429999999999 C 474.734 574.3179999999999 488.73499999999996 568.2019999999999 501.29799999999994 560.1069999999999 L 502.931 563.887 z M 139.238 581.873 C 135.653 590.167 127.499 595.523 118.461 595.523 C 115.366 595.523 112.345 594.893 109.482 593.6560000000001 C 98.035 588.6890000000001 92.75 575.3320000000001 97.703 563.8900000000001 L 99.2 560.4330000000001 C 111.796 568.4750000000001 125.825 574.5250000000001 140.881 578.0820000000001 L 139.238 581.873 z M 147.772 46.891 C 141.60299999999998 41.907 140.541 32.686 145.398 26.342 C 148.10399999999998 22.823 152.158 20.802 156.516 20.802 C 159.708 20.802 162.72899999999998 21.878 165.24699999999999 23.919999999999998 C 170.28099999999998 27.99 171.914 34.875 169.70499999999998 40.712 C 169.439 41.414 169.106 42.096000000000004 168.72799999999998 42.761 C 168.397 43.344 168.04 43.916000000000004 167.62199999999999 44.46 C 167.57899999999998 44.517 167.528 44.565 167.48399999999998 44.621 C 167.212 44.964000000000006 166.92799999999997 45.296 166.629 45.607 C 166.1 46.155 165.52499999999998 46.643 164.922 47.089 C 164.29 47.556 163.624 47.966 162.93 48.318 C 158.149 50.74 152.106 50.408 147.772 46.891 z M 171.161 47.203 L 251.917 103.906 C 249.203 107.21000000000001 246.874 110.81500000000001 244.989 114.668 L 169.995 48.57400000000001 C 170.4 48.137 170.792 47.683 171.161 47.203 z M 246.716 122.162 C 246.978 121.405 247.25900000000001 120.658 247.55700000000002 119.918 C 247.85000000000002 119.188 248.16100000000003 118.46600000000001 248.489 117.753 C 250.353 113.69 252.75 109.916 255.6 106.491 C 256.079 105.915 256.572 105.349 257.076 104.793 C 257.582 104.235 258.101 103.688 258.632 103.15100000000001 C 268.97 92.697 283.86400000000003 86.284 300.318 86.284 C 311.594 86.284 322.133 89.30000000000001 330.981 94.555 C 331.679 94.97000000000001 332.368 95.399 333.044 95.84100000000001 C 334.036 96.49000000000001 335.01 97.162 335.953 97.86900000000001 C 339.57599999999996 100.58200000000001 342.82599999999996 103.70900000000002 345.61699999999996 107.186 C 346.08599999999996 107.769 346.542 108.36300000000001 346.984 108.96700000000001 C 347.428 109.57300000000001 347.859 110.18900000000001 348.277 110.81300000000002 C 351.543 115.70300000000002 353.96299999999997 121.15900000000002 355.336 127.03200000000001 C 345.21500000000003 126.51400000000001 334.88800000000003 126.147 324.446 125.92000000000002 C 323.84400000000005 125.90700000000001 323.24300000000005 125.89300000000001 322.64000000000004 125.88100000000001 C 321.38500000000005 125.85600000000001 320.129 125.83300000000001 318.87100000000004 125.81200000000001 C 317.89200000000005 125.796 316.913 125.78000000000002 315.93300000000005 125.76700000000001 C 314.87700000000007 125.75200000000001 313.82200000000006 125.73800000000001 312.76400000000007 125.72500000000001 C 311.46900000000005 125.71100000000001 310.17100000000005 125.69900000000001 308.87300000000005 125.68900000000001 C 308.06600000000003 125.683 307.261 125.674 306.45400000000006 125.67 C 304.30500000000006 125.658 302.15400000000005 125.65 300.00000000000006 125.65 C 297.8620000000001 125.65 295.72900000000004 125.658 293.6000000000001 125.67 C 292.7200000000001 125.675 291.8430000000001 125.684 290.96400000000006 125.691 C 289.77200000000005 125.7 288.58000000000004 125.711 287.39000000000004 125.724 C 286.22 125.73700000000001 285.05300000000005 125.753 283.886 125.77000000000001 C 283.064 125.78200000000001 282.242 125.79400000000001 281.422 125.808 C 280.021 125.831 278.62300000000005 125.85600000000001 277.228 125.885 C 276.8 125.893 276.374 125.90400000000001 275.947 125.912 C 270.859 126.021 265.809 126.164 260.806 126.34200000000001 C 259.827 126.37700000000001 258.84799999999996 126.41100000000002 257.87199999999996 126.44800000000001 C 256.943 126.48400000000001 256.02 126.524 255.09399999999997 126.56200000000001 C 254.01499999999996 126.60600000000001 252.93099999999995 126.647 251.85699999999997 126.69500000000001 C 249.66099999999997 126.793 247.47499999999997 126.897 245.30099999999996 127.00800000000001 C 245.69 125.356 246.168 123.743 246.716 122.162 z M 435.386 7.594 C 437.90500000000003 5.5520000000000005 440.92100000000005 4.477 444.113 4.477 C 448.472 4.477 452.521 6.497 455.227 10.017 C 460.09299999999996 16.361 459.036 25.586 452.86999999999995 30.575 C 450.352 32.608 447.33099999999996 33.688 444.13999999999993 33.688 C 441.82899999999995 33.688 439.61299999999994 33.105000000000004 437.62999999999994 32.047000000000004 C 436.9479999999999 31.683000000000003 436.2989999999999 31.260000000000005 435.6809999999999 30.784000000000006 C 435.0899999999999 30.329000000000008 434.5249999999999 29.835000000000004 434.00199999999995 29.282000000000007 C 433.70599999999996 28.96900000000001 433.424 28.637000000000008 433.15199999999993 28.294000000000008 C 433.1089999999999 28.239000000000008 433.0589999999999 28.191000000000006 433.0159999999999 28.136000000000006 C 432.5969999999999 27.590000000000007 432.2389999999999 27.016000000000005 431.9069999999999 26.432000000000006 C 431.5299999999999 25.766000000000005 431.19499999999994 25.084000000000007 430.9289999999999 24.381000000000007 C 428.723 18.543 430.354 11.663 435.386 7.594 z M 429.476 30.874 C 429.844 31.354 430.235 31.808 430.64 32.244 L 348.97799999999995 104.225 C 346.04299999999995 100.59899999999999 342.64699999999993 97.332 338.87799999999993 94.47999999999999 L 429.476 30.874 z M 454.934 185.257 C 422.353 174.148 370.184 168.51600000000002 299.884 168.51600000000002 C 229.96 168.51600000000002 177.48600000000002 174.23900000000003 144.143 185.467 C 112.511 192.62900000000002 89.553 221.31900000000002 89.553 253.686 L 89.553 458.73199999999997 C 89.553 480.628 112.58 499.97799999999995 144.153 504.71799999999996 C 146.31699999999998 505.19499999999994 148.551 505.645 150.855 506.056 C 168.48899999999998 509.24399999999997 191.539 510.87399999999997 225.59199999999998 511.351 C 235.87599999999998 511.495 246.64 511.535 257.816 511.535 L 300.003 511.478 C 308.21799999999996 511.482 316.263 511.503 324.115 511.526 C 332.05400000000003 511.551 339.794 511.574 347.323 511.574 C 356.692 511.574 365.729 511.539 374.399 511.426 C 408.62 511.006 431.674 509.34499999999997 449.159 506.03 C 451.056 505.67199999999997 452.906 505.291 454.519 504.92499999999995 C 486.925 500.45099999999996 510.447 481.02699999999993 510.447 458.73299999999995 L 510.447 253.686 C 510.446 220.711 486.99 191.903 454.934 185.257 z M 505.97 458.731 C 505.97 478.764 484.074 496.323 453.728 500.52 C 452.111 500.87899999999996 450.443 501.222 448.744 501.548 C 448.60400000000004 501.574 448.46900000000005 501.604 448.32800000000003 501.63 C 431.115 504.891 408.307 506.53 374.37300000000005 506.94599999999997 C 374.36300000000006 506.94599999999997 374.35200000000003 506.94599999999997 374.3430000000001 506.94599999999997 C 358.72600000000006 507.152 341.9270000000001 507.10799999999995 324.12800000000004 507.04699999999997 C 316.309 507.025 308.302 507.003 300.00300000000004 506.99899999999997 C 299.963 506.99899999999997 299.92400000000004 506.99899999999997 299.88500000000005 506.99899999999997 C 292.47 506.99899999999997 285.1820000000001 507.01199999999994 278.03200000000004 507.02899999999994 L 257.81600000000003 507.05499999999995 C 246.66300000000004 507.05499999999995 235.92000000000002 507.01599999999996 225.65400000000002 506.8709999999999 C 225.64400000000003 506.8709999999999 225.63400000000001 506.8709999999999 225.62400000000002 506.8709999999999 C 191.84400000000002 506.39699999999993 169.03000000000003 504.78899999999993 151.64700000000002 501.6459999999999 C 151.514 501.6229999999999 151.38500000000002 501.5949999999999 151.252 501.5719999999999 C 149.145 501.1889999999999 147.09300000000002 500.78199999999987 144.97 500.3169999999999 C 115.453 495.8789999999999 94.031 478.3899999999999 94.031 458.72899999999987 L 94.031 430.2839999999999 L 151.25300000000001 430.2839999999999 L 225.62400000000002 430.2839999999999 L 300.00300000000004 430.2839999999999 L 374.37300000000005 430.2839999999999 L 448.744 430.2839999999999 L 505.971 430.2839999999999 L 505.971 458.731 z M 505.97 425.81 L 94.03 425.81 L 94.03 253.686 C 94.03 223.39100000000002 115.523 196.538 145.35 189.77 C 178.452 178.638 230.445 172.994 299.883 172.994 C 369.69399999999996 172.994 421.37199999999996 178.547 453.756 189.569 C 484.01199999999994 195.856 505.969 222.819 505.969 253.68699999999998 L 505.969 425.81 z M 261.404 533.063 C 253.552 533.063 247.16 539.451 247.16 547.298 C 247.16 555.1370000000001 253.553 561.5120000000001 261.404 561.5120000000001 C 269.243 561.5120000000001 275.622 555.1370000000001 275.622 547.298 C 275.622 539.45 269.243 533.063 261.404 533.063 z M 261.404 557.035 C 256.018 557.035 251.637 552.6669999999999 251.637 547.298 C 251.637 541.916 256.01800000000003 537.54 261.404 537.54 C 266.777 537.54 271.145 541.9159999999999 271.145 547.298 C 271.146 552.667 266.777 557.035 261.404 557.035 z M 301.453 533.063 C 293.60499999999996 533.063 287.22299999999996 539.451 287.22299999999996 547.298 C 287.22299999999996 555.1370000000001 293.60599999999994 561.5120000000001 301.453 561.5120000000001 C 309.3 561.5120000000001 315.68399999999997 555.1370000000001 315.68399999999997 547.298 C 315.685 539.45 309.301 533.063 301.453 533.063 z M 301.453 557.035 C 296.07599999999996 557.035 291.69899999999996 552.6669999999999 291.69899999999996 547.298 C 291.69899999999996 541.916 296.07599999999996 537.54 301.453 537.54 C 306.83099999999996 537.54 311.207 541.9159999999999 311.207 547.298 C 311.207 552.667 306.831 557.035 301.453 557.035 z M 341.511 533.063 C 333.663 533.063 327.281 539.451 327.281 547.298 C 327.281 555.1370000000001 333.664 561.5120000000001 341.511 561.5120000000001 C 349.35800000000006 561.5120000000001 355.742 555.1370000000001 355.742 547.298 C 355.742 539.45 349.358 533.063 341.511 533.063 z M 341.511 557.035 C 336.134 557.035 331.757 552.6669999999999 331.757 547.298 C 331.757 541.916 336.134 537.54 341.511 537.54 C 346.889 537.54 351.26500000000004 541.9159999999999 351.26500000000004 547.298 C 351.265 552.667 346.889 557.035 341.511 557.035 z" stroke-linecap="round" />
</g>
</g>
</g>
</svg>